# xmcd
#
# Track frame offsets:
#   150
#   19411
#   35900
#   63750
#   78275
#   99401
#   116914
#   153733
#   169397
#   197984
#   215656
#
# Disc length: 3228 seconds
#
# Revision: 0
# Processed by: cddbd v1.4PL0 Copyright (c) Steve Scherf et al.
# Submitted via: uFREEDB 1.6.0
#
DISCID=a10c9a0b
DTITLE=Dowd, Johnny - Temporary Shelter
DYEAR=2001
DGENRE=Blues
TTITLE0=Vengeance Is Mine
TTITLE1=Big Wave
TTITLE2=Cradle To The Grave
TTITLE3=Golden Rule
TTITLE4=Hell Or High Water
TTITLE5=Hideaway
TTITLE6=Angel Eyes
TTITLE7=Sky Above, Mud Below
TTITLE8=Stumble And Fall
TTITLE9=Lost Avenue
TTITLE10=Death Comes Knocking
EXTD=
EXTT0=
EXTT1=
EXTT2=
EXTT3=
EXTT4=
EXTT5=
EXTT6=
EXTT7=
EXTT8=
EXTT9=
EXTT10=
PLAYORDER=
